<svg width="60" height="36" viewBox="0 0 60 36" fill="none" xmlns="http://www.w3.org/2000/svg">
<path d="M57.6 0H2.4C1.07452 0 0 1.07452 0 2.4V33.6C0 34.9255 1.07452 36 2.4 36H57.6C58.9255 36 60 34.9255 60 33.6V2.4C60 1.07452 58.9255 0 57.6 0Z" fill="#000066"/>
<path fill-rule="evenodd" clip-rule="evenodd" d="M33.6769 18.2912C33.6769 24.7581 28.4349 29.9999 21.9681 29.9999C15.5011 29.9999 10.2588 24.7581 10.2588 18.2912C10.2588 11.8244 15.5011 6.58203 21.9681 6.58203C28.4349 6.58203 33.6769 11.8244 33.6769 18.2912Z" fill="#CC0000"/>
<path fill-rule="evenodd" clip-rule="evenodd" d="M37.6884 6.58203C34.6622 6.58203 31.9059 7.72983 29.8275 9.6128C29.4047 9.99657 29.01 10.4111 28.6457 10.8524H31.0114C31.3345 11.2458 31.6322 11.6593 31.904 12.0925H27.7529C27.5045 12.4905 27.2788 12.9041 27.0782 13.3327H32.5783C32.7663 13.734 32.9317 14.1474 33.0742 14.5722H26.5823C26.4472 14.976 26.3332 15.3897 26.2422 15.8116H33.414C33.5857 16.611 33.6771 17.4403 33.6771 18.2912C33.6771 19.5911 33.4652 20.8423 33.0742 22.0108H26.5823C26.7248 22.4353 26.8902 22.8492 27.0778 23.2512H32.5783C32.3774 23.6786 32.1527 24.0925 31.9029 24.4911H27.7529C28.0236 24.923 28.3218 25.3371 28.6457 25.7299H31.0107C30.6471 26.1716 30.252 26.5861 29.8279 26.9699C31.9061 28.8529 34.6622 29.9999 37.6884 29.9999C44.155 29.9999 49.3971 24.7581 49.3971 18.2912C49.3971 11.8249 44.155 6.58203 37.6884 6.58203Z" fill="#FF9900"/>
<path fill-rule="evenodd" clip-rule="evenodd" d="M19.2339 19.5739C19.1005 19.5587 19.0416 19.5539 18.95 19.5539C18.2295 19.5539 17.8651 19.8011 17.8651 20.2894C17.8651 20.5901 18.043 20.7812 18.3205 20.7812C18.8385 20.7812 19.2117 20.2883 19.2339 19.5739ZM20.1585 21.7261H19.1049L19.1292 21.2255C18.8079 21.6208 18.3792 21.8095 17.7969 21.8095C17.1081 21.8095 16.6357 21.2718 16.6357 20.4904C16.6357 19.3141 17.4571 18.6281 18.8673 18.6281C19.0118 18.6281 19.1965 18.6414 19.3856 18.6653C19.4248 18.5058 19.4352 18.4381 19.4352 18.352C19.4352 18.0323 19.2139 17.9124 18.6201 17.9124C17.9982 17.9061 17.4853 18.061 17.2745 18.1302C17.2878 18.0499 17.4508 17.0438 17.4508 17.0438C18.084 16.8577 18.5019 16.7881 18.9721 16.7881C20.0638 16.7881 20.642 17.2781 20.6407 18.2044C20.643 18.4529 20.6017 18.7584 20.5379 19.1614C20.4276 19.8609 20.1907 21.361 20.1585 21.7261Z" fill="#000066"/>
<path fill-rule="evenodd" clip-rule="evenodd" d="M16.1033 21.7254H14.8319L15.5606 17.1601L13.9343 21.7254H13.0681L12.961 17.1856L12.1957 21.7254H11.0059L11.9997 15.7861H13.8277L13.9382 19.1106L15.0534 15.7861H17.0865L16.1033 21.7254Z" fill="#000066"/>
<path fill-rule="evenodd" clip-rule="evenodd" d="M39.2585 19.5739C39.1251 19.5587 39.067 19.5539 38.9756 19.5539C38.2545 19.5539 37.8905 19.8011 37.8905 20.2894C37.8905 20.5901 38.0676 20.7812 38.3459 20.7812C38.8635 20.7812 39.2369 20.2883 39.2585 19.5739ZM40.1837 21.7261H39.1305L39.1544 21.2255C38.8331 21.6208 38.4046 21.8095 37.8226 21.8095C37.133 21.8095 36.6611 21.2718 36.6611 20.4904C36.6611 19.3141 37.4829 18.6281 38.8927 18.6281C39.037 18.6281 39.2213 18.6414 39.4106 18.6653C39.45 18.5058 39.4602 18.4381 39.4602 18.352C39.4602 18.0323 39.2389 17.9124 38.6451 17.9124C38.0232 17.9061 37.5105 18.061 37.299 18.1302C37.313 18.0499 37.4764 17.0438 37.4764 17.0438C38.1093 16.8577 38.5274 16.7881 38.9969 16.7881C40.0894 16.7881 40.6669 17.2781 40.6658 18.2044C40.668 18.4529 40.6271 18.7584 40.5629 19.1614C40.453 19.8609 40.2156 21.361 40.1837 21.7261Z" fill="#000066"/>
<path fill-rule="evenodd" clip-rule="evenodd" d="M25.808 21.6518C25.4599 21.7613 25.1888 21.8087 24.8946 21.8087C24.2449 21.8087 23.8902 21.4353 23.8902 20.7475C23.8811 20.534 23.9837 19.9724 24.0643 19.4602C24.138 19.0089 24.6157 16.1641 24.6157 16.1641H25.879L25.7315 16.8952H26.4948L26.3226 18.0561H25.5567C25.4099 18.9744 25.2007 20.1187 25.1983 20.2705C25.1983 20.5195 25.3311 20.6283 25.6337 20.6283C25.7785 20.6283 25.8907 20.6135 25.9763 20.5828L25.808 21.6518Z" fill="#000066"/>
<path fill-rule="evenodd" clip-rule="evenodd" d="M29.6818 21.6136C29.2477 21.7462 28.8293 21.811 28.3854 21.8095C26.9708 21.8077 26.2334 21.0693 26.2334 19.6547C26.2334 18.0038 27.1714 16.7881 28.445 16.7881C29.4866 16.7881 30.1522 17.4687 30.1522 18.5356C30.1522 18.8903 30.1067 19.236 29.9962 19.7237H27.48C27.3951 20.4245 27.8432 20.7163 28.5788 20.7163C29.0305 20.7163 29.4387 20.623 29.8922 20.4126L29.6818 21.6136ZM28.9716 18.7502C28.9788 18.6494 29.1054 17.888 28.3832 17.888C27.9813 17.888 27.6932 18.1948 27.5764 18.7502H28.9716Z" fill="#000066"/>
<path fill-rule="evenodd" clip-rule="evenodd" d="M20.9207 18.4231C20.9207 19.0335 21.2168 19.4549 21.8885 19.7715C22.4031 20.0137 22.4832 20.0853 22.4832 20.3046C22.4832 20.6053 22.256 20.7418 21.7532 20.7418C21.3737 20.7418 21.021 20.6822 20.6141 20.5507C20.6141 20.5507 20.4474 21.6158 20.4395 21.6667C20.7283 21.7292 20.9859 21.7875 21.7623 21.8095C23.1035 21.8095 23.723 21.2988 23.723 20.195C23.723 19.5315 23.4639 19.142 22.827 18.8489C22.2943 18.6044 22.2327 18.5497 22.2327 18.3243C22.2327 18.0632 22.4442 17.9298 22.8548 17.9298C23.1044 17.9298 23.4451 17.9564 23.7683 18.0021L23.9491 16.8819C23.6201 16.8295 23.1209 16.7881 22.8304 16.7881C21.4085 16.7881 20.9161 17.5307 20.9207 18.4231Z" fill="#000066"/>
<path fill-rule="evenodd" clip-rule="evenodd" d="M35.8648 16.9154C36.2179 16.9154 36.5476 17.0072 37.0008 17.2361L37.209 15.9471C37.0221 15.8738 36.3669 15.4443 35.8117 15.4443C34.9613 15.4443 34.2415 15.867 33.7362 16.5629C32.9982 16.3186 32.6946 16.8123 32.323 17.3045L31.9927 17.3815C32.0177 17.2196 32.0404 17.0588 32.0332 16.8958H30.8653C30.7061 18.3911 30.4236 19.9051 30.2024 21.4009L30.1445 21.7259H31.4163C31.6285 20.3466 31.7446 19.4638 31.8153 18.8657L32.2941 18.6004C32.3661 18.3337 32.5895 18.2442 33.0387 18.2551C32.9801 18.57 32.9483 18.9018 32.9483 19.2451C32.9483 20.8255 33.802 21.8093 35.1698 21.8093C35.5223 21.8093 35.8251 21.7631 36.2938 21.6354L36.5166 20.282C36.095 20.4891 35.7499 20.5866 35.437 20.5866C34.698 20.5866 34.2507 20.0409 34.2507 19.1396C34.2507 17.8315 34.9154 16.9154 35.8648 16.9154Z" fill="#000066"/>
<path fill-rule="evenodd" clip-rule="evenodd" d="M46.6262 15.7861L46.3437 17.502C45.9967 17.0448 45.6233 16.7136 45.1303 16.7136C44.489 16.7136 43.9052 17.1998 43.5229 17.9159C42.9906 17.8055 42.4404 17.6177 42.4404 17.6177L42.4401 17.6223C42.4824 17.222 42.5004 16.9785 42.4961 16.8953H41.3283C41.1698 18.3906 40.8868 19.9046 40.6659 21.4004L40.6074 21.7254H41.8796C42.0513 20.6107 42.1825 19.684 42.2793 18.9501C42.7141 18.5571 42.9317 18.2153 43.3701 18.2375C43.1756 18.7079 43.0622 19.2493 43.0622 19.8048C43.0622 21.0118 43.6724 21.8088 44.5969 21.8088C45.0628 21.8088 45.4203 21.648 45.7689 21.2757L45.709 21.725H46.9117L47.88 15.7861H46.6262ZM45.0365 20.6096C44.6039 20.6096 44.3848 20.2887 44.3848 19.6574C44.3848 18.7079 44.7943 18.0349 45.3707 18.0349C45.8076 18.0349 46.0444 18.3673 46.0444 18.9808C46.0444 19.9384 45.6281 20.6096 45.0365 20.6096Z" fill="#000066"/>
<path fill-rule="evenodd" clip-rule="evenodd" d="M16.4694 21.3732H15.1983L15.9268 16.8079L14.3009 21.3732H13.4343L13.3274 16.8344L12.5619 21.3732H11.3721L12.3659 15.4346H14.1939L14.245 19.1109L15.4785 15.4346H17.4527L16.4694 21.3732Z" fill="white"/>
<path fill-rule="evenodd" clip-rule="evenodd" d="M19.5999 19.2211C19.4667 19.2055 19.4078 19.2013 19.3162 19.2013C18.5957 19.2013 18.2312 19.4481 18.2312 19.9361C18.2312 20.2364 18.4092 20.4287 18.6869 20.4287C19.2047 20.4287 19.5779 19.9357 19.5999 19.2211ZM20.5244 21.3725H19.4713L19.4954 20.8724C19.1741 21.2674 18.7454 21.4564 18.1631 21.4564C17.4742 21.4564 17.002 20.9179 17.002 20.1367C17.002 18.9602 17.8235 18.2752 19.2337 18.2752C19.3779 18.2752 19.5625 18.2883 19.7518 18.3127C19.7911 18.1528 19.8014 18.0849 19.8014 17.9985C19.8014 17.679 19.5801 17.56 18.9863 17.56C18.3642 17.5526 17.8515 17.7075 17.6405 17.7765C17.654 17.6965 17.8169 16.6905 17.8169 16.6905C18.4503 16.5047 18.8681 16.4346 19.3383 16.4346C20.4298 16.4346 21.0079 16.9251 21.007 17.851C21.009 18.0992 20.9681 18.4062 20.9041 18.8081C20.7936 19.507 20.5568 21.008 20.5244 21.3725Z" fill="white"/>
<path fill-rule="evenodd" clip-rule="evenodd" d="M37.5746 15.5936L37.3665 16.8824C36.9126 16.6543 36.5837 16.5619 36.2311 16.5619C35.282 16.5619 34.6162 17.4792 34.6162 18.7874C34.6162 19.6887 35.0636 20.2333 35.8027 20.2333C36.1158 20.2333 36.4616 20.1365 36.8822 19.9287L36.6589 21.2821C36.1909 21.4096 35.888 21.4562 35.5357 21.4562C34.1669 21.4562 33.3145 20.4722 33.3145 18.8921C33.3145 16.769 34.493 15.2852 36.1776 15.2852C36.7327 15.2852 37.3883 15.5203 37.5746 15.5936Z" fill="white"/>
<path fill-rule="evenodd" clip-rule="evenodd" d="M39.6244 19.2211C39.4919 19.2055 39.4329 19.2013 39.3415 19.2013C38.6213 19.2013 38.2566 19.4481 38.2566 19.9361C38.2566 20.2364 38.4344 20.4287 38.7119 20.4287C39.2295 20.4287 39.6031 19.9357 39.6244 19.2211ZM40.5496 21.3725H39.4965L39.5204 20.8724C39.1992 21.2674 38.7704 21.4564 38.1887 21.4564C37.499 21.4564 37.0273 20.9179 37.0273 20.1367C37.0273 18.9602 37.8482 18.2752 39.2587 18.2752C39.4029 18.2752 39.5872 18.2883 39.7763 18.3127C39.8157 18.1528 39.8261 18.0849 39.8261 17.9985C39.8261 17.679 39.6053 17.56 39.0112 17.56C38.3896 17.5526 37.877 17.7075 37.6657 17.7765C37.6791 17.6965 37.8421 16.6905 37.8421 16.6905C38.4755 16.5047 38.8929 16.4346 39.3631 16.4346C40.4546 16.4346 41.0333 16.9251 41.0318 17.851C41.0344 18.0992 40.9931 18.4062 40.9291 18.8081C40.819 19.507 40.5821 21.008 40.5496 21.3725Z" fill="white"/>
<path fill-rule="evenodd" clip-rule="evenodd" d="M26.1742 21.2999C25.8265 21.4094 25.555 21.457 25.2612 21.457C24.6113 21.457 24.2564 21.0834 24.2564 20.3963C24.2475 20.182 24.3502 19.6214 24.4311 19.1086C24.5042 18.6569 24.9821 15.8125 24.9821 15.8125H26.2458L26.0979 16.5434H26.7467L26.5738 17.704H25.9231C25.7763 18.6233 25.567 19.7668 25.5644 19.9185C25.5644 20.1683 25.6979 20.2764 26 20.2764C26.1449 20.2764 26.2569 20.2622 26.3429 20.2307L26.1742 21.2999Z" fill="white"/>
<path fill-rule="evenodd" clip-rule="evenodd" d="M30.0482 21.261C29.6139 21.394 29.1946 21.4567 28.7513 21.4564C27.3364 21.4554 26.5996 20.7162 26.5996 19.3018C26.5996 17.6503 27.5374 16.4346 28.8101 16.4346C29.8528 16.4346 30.518 17.1151 30.518 18.1834C30.518 18.5374 30.4718 18.8828 30.3626 19.3708H27.846C27.7607 20.0715 28.2095 20.3639 28.9442 20.3639C29.3963 20.3639 29.8043 20.2703 30.2584 20.0593L30.0482 21.261ZM29.3378 18.3967C29.3447 18.2957 29.4718 17.5346 28.7498 17.5346C28.3475 17.5346 28.0594 17.842 27.9423 18.3967H29.3378Z" fill="white"/>
<path fill-rule="evenodd" clip-rule="evenodd" d="M21.2866 18.0696C21.2866 18.6811 21.583 19.1015 22.2549 19.4185C22.7695 19.6606 22.8492 19.7322 22.8492 19.9516C22.8492 20.2527 22.6222 20.3885 22.1191 20.3885C21.7399 20.3885 21.3871 20.3297 20.98 20.1985C20.98 20.1985 20.8134 21.2628 20.8057 21.313C21.0943 21.3762 21.3521 21.434 22.1281 21.4564C23.4697 21.4564 24.0892 20.9458 24.0892 19.8421C24.0892 19.1782 23.8298 18.7888 23.193 18.4965C22.6601 18.2513 22.5989 18.1971 22.5989 17.9713C22.5989 17.7102 22.8102 17.5759 23.2212 17.5759C23.4702 17.5759 23.8113 17.6037 24.1343 17.6492L24.3153 16.5291C23.9861 16.4771 23.4873 16.4346 23.1966 16.4346C21.7743 16.4346 21.2823 17.1773 21.2866 18.0696Z" fill="white"/>
<path fill-rule="evenodd" clip-rule="evenodd" d="M47.2775 21.3732H46.0751L46.1347 20.9238C45.7859 21.2963 45.4286 21.4571 44.9626 21.4571C44.0389 21.4571 43.4277 20.661 43.4277 19.4527C43.4277 17.8462 44.3753 16.4921 45.4961 16.4921C45.9891 16.4921 46.3623 16.6934 46.71 17.1508L46.992 15.4346H48.2456L47.2775 21.3732ZM45.4021 20.2573C45.9944 20.2573 46.41 19.5865 46.41 18.6298C46.41 18.0161 46.1734 17.6826 45.7365 17.6826C45.1599 17.6826 44.7506 18.3558 44.7506 19.3056C44.7506 19.9377 44.9699 20.2573 45.4021 20.2573Z" fill="white"/>
<path fill-rule="evenodd" clip-rule="evenodd" d="M41.6944 16.5431C41.5354 18.038 41.2527 19.552 41.0315 21.048L40.9736 21.3728H42.245C42.6999 18.4192 42.8092 17.8428 43.5227 17.9148C43.6362 17.3102 43.8477 16.7808 44.0051 16.514C43.4728 16.403 43.1754 16.7039 42.7857 17.2756C42.8168 17.0282 42.8729 16.7882 42.8623 16.5431H41.6944Z" fill="white"/>
<path fill-rule="evenodd" clip-rule="evenodd" d="M31.2311 16.5431C31.0714 18.038 30.7882 19.552 30.5675 21.048L30.5098 21.3728H31.7815C32.2366 18.4192 32.3455 17.8428 33.0579 17.9148C33.1721 17.3102 33.384 16.7808 33.5411 16.514C33.0093 16.403 32.7114 16.7039 32.3224 17.2756C32.3531 17.0282 32.4096 16.7882 32.3985 16.5431H31.2311Z" fill="white"/>
</svg>
