<?xml version="1.0" encoding="utf-8"?>
<!-- Generator: Adobe Illustrator 24.0.1, SVG Export Plug-In . SVG Version: 6.00 Build 0)  -->
<svg version="1.1" id="Capa_1" xmlns="http://www.w3.org/2000/svg" xmlns:xlink="http://www.w3.org/1999/xlink" x="0px" y="0px"
	 viewBox="0 0 512 512" style="enable-background:new 0 0 512 512;" xml:space="preserve">
<style type="text/css">
	.st0{fill:#FFBDBC;}
	.st1{fill:#020288;}
</style>
<g>
	<g>
		<path class="st0" d="M0,355.5h512v117.2H0V355.5z"/>
	</g>
	<g>
		<path class="st1" d="M268.9,211.3h-25.7c-5.5,0-10,4.5-10,10s4.5,10,10,10h2.9v7.4c0,5.5,4.5,10,10,10s10-4.5,10-10v-7.4h2.9
			c5.5,0,10-4.5,10-10S274.4,211.3,268.9,211.3z"/>
		<path class="st1" d="M393.7,237.1c4,10,13.7,17,25.1,17c14.9,0,27-12.1,27-27c0-14.9-12.1-27-27-27c-11.4,0-21.1,7.1-25.1,17
			h-40.3v-40.2h28.3c2.4,0,4.8-0.9,6.6-2.5l9.1-8c4.9,6.4,12.7,10.5,21.3,10.5c14.9,0,27-12.1,27-27s-12.1-27-27-27
			c-13,0-23.9,9.2-26.4,21.4L378,156.9h-24.5V150c0-5.5-4.5-10-10-10h-15.7v-29c0-39.5-32.2-71.7-71.7-71.7s-71.7,32.2-71.7,71.7v29
			h-15.7c-5.5,0-10,4.5-10,10v6.9H134l-14.4-12.6c-2.6-12.2-13.5-21.4-26.4-21.4c-14.9,0-27,12.1-27,27c0,14.9,12.1,27,27,27
			c8.7,0,16.4-4.1,21.3-10.5l9.1,8c1.8,1.6,4.2,2.5,6.6,2.5h28.3v40.2h-40.3c-4-10-13.7-17-25.1-17c-14.9,0-27,12.1-27,27
			s12.1,27,27,27c11.4,0,21.1-7.1,25.1-17h40.3v40.2h-28.3c-2.4,0-4.7,0.8-6.5,2.4l-9.4,7.9c-5-6.3-12.6-10.3-21.2-10.3
			c-14.9,0-27,12.1-27,27c0,14.9,12.1,27,27,27c13.2,0,24.2-9.5,26.6-22.1l14.1-12h24.6V310c0,5.5,4.5,10,10,10h174.9
			c5.5,0,10-4.5,10-10v-12.8h24.6l14.1,12c2.3,12.5,13.4,22.1,26.6,22.1c14.9,0,27-12.1,27-27c0-14.9-12.1-27-27-27
			c-8.6,0-16.3,4-21.2,10.3l-9.4-7.9c-1.8-1.5-4.1-2.4-6.5-2.4h-28.3v-40.2L393.7,237.1z M418.8,220.1c3.9,0,7,3.1,7,7s-3.1,7-7,7
			c-3.9,0-7-3.1-7-7S414.9,220.1,418.8,220.1z M418.8,142.8c3.9,0,7,3.1,7,7s-3.1,7-7,7c-3.9,0-7-3.1-7-7
			C411.8,146,414.9,142.8,418.8,142.8z M93.2,156.9c-3.9,0-7-3.1-7-7c0-3.9,3.2-7,7-7c3.9,0,7,3.1,7,7
			C100.2,153.7,97.1,156.9,93.2,156.9z M93.2,234.1c-3.9,0-7-3.1-7-7s3.2-7,7-7c3.9,0,7,3.1,7,7S97.1,234.1,93.2,234.1z M93.2,311.3
			c-3.9,0-7-3.1-7-7s3.2-7,7-7c3.9,0,7,3.1,7,7S97.1,311.3,93.2,311.3z M418.8,297.3c3.9,0,7,3.1,7,7s-3.1,7-7,7c-3.9,0-7-3.1-7-7
			C411.8,300.4,414.9,297.3,418.8,297.3z M204.3,111c0-28.5,23.2-51.7,51.7-51.7s51.7,23.2,51.7,51.7v29H204.3L204.3,111z
			 M333.5,300H178.5V160h154.9L333.5,300L333.5,300z"/>
		<path class="st1" d="M439.9,395.4c-3.9-3.9-10.2-3.9-14.1,0l-4.5,4.5l-4.5-4.5c-3.9-3.9-10.2-3.9-14.1,0c-3.9,3.9-3.9,10.2,0,14.1
			l4.5,4.5l-4.5,4.5c-3.9,3.9-3.9,10.2,0,14.1c2,2,4.5,2.9,7.1,2.9s5.1-1,7.1-2.9l4.5-4.5l4.5,4.5c2,2,4.5,2.9,7.1,2.9
			s5.1-1,7.1-2.9c3.9-3.9,3.9-10.2,0-14.1l-4.5-4.5l4.5-4.5C443.8,405.7,443.8,399.3,439.9,395.4L439.9,395.4z"/>
		<path class="st1" d="M329.8,395.4c-3.9-3.9-10.2-3.9-14.1,0l-4.5,4.5l-4.5-4.5c-3.9-3.9-10.2-3.9-14.1,0c-3.9,3.9-3.9,10.2,0,14.1
			l4.5,4.5l-4.5,4.5c-3.9,3.9-3.9,10.2,0,14.1c2,2,4.5,2.9,7.1,2.9s5.1-1,7.1-2.9l4.5-4.5l4.5,4.5c2,2,4.5,2.9,7.1,2.9
			s5.1-1,7.1-2.9c3.9-3.9,3.9-10.2,0-14.1l-4.5-4.5l4.5-4.5C333.7,405.7,333.7,399.3,329.8,395.4L329.8,395.4z"/>
		<path class="st1" d="M219.6,395.4c-3.9-3.9-10.2-3.9-14.1,0l-4.5,4.5l-4.5-4.5c-3.9-3.9-10.2-3.9-14.1,0c-3.9,3.9-3.9,10.2,0,14.1
			l4.5,4.5l-4.5,4.5c-3.9,3.9-3.9,10.2,0,14.1c2,2,4.5,2.9,7.1,2.9s5.1-1,7.1-2.9l4.5-4.5l4.5,4.5c2,2,4.5,2.9,7.1,2.9
			s5.1-1,7.1-2.9c3.9-3.9,3.9-10.2,0-14.1l-4.5-4.5l4.5-4.5C223.5,405.7,223.5,399.3,219.6,395.4z"/>
		<path class="st1" d="M109.4,395.4c-3.9-3.9-10.2-3.9-14.1,0l-4.5,4.5l-4.5-4.5c-3.9-3.9-10.2-3.9-14.1,0c-3.9,3.9-3.9,10.2,0,14.1
			l4.5,4.5l-4.5,4.5c-3.9,3.9-3.9,10.2,0,14.1c2,2,4.5,2.9,7.1,2.9s5.1-1,7.1-2.9l4.5-4.5l4.5,4.5c2,2,4.5,2.9,7.1,2.9
			s5.1-1,7.1-2.9c3.9-3.9,3.9-10.2,0-14.1l-4.5-4.5l4.5-4.5C113.3,405.7,113.3,399.3,109.4,395.4z"/>
	</g>
</g>
</svg>
